<svg width="50" height="50" viewBox="0 0 50 50" fill="none" xmlns="http://www.w3.org/2000/svg">
<g id="&#227;&#130;&#180;&#227;&#131;&#188;&#227;&#131;&#171;&#227;&#130;&#162;&#227;&#130;&#164;&#227;&#130;&#179;&#227;&#131;&#179;2 2" clip-path="url(#clip0_136_7463)">
<g id="Group">
<path id="Vector" d="M25 0C11.1922 0.00175781 0.00175781 11.1912 0 25C0.00175781 38.8078 11.1922 49.9982 25 50C38.8079 49.9982 49.9982 38.8078 50 25C49.9982 11.1912 38.8079 0.00175781 25 0ZM39.5211 39.5212C35.7971 43.2408 30.6779 45.534 25 45.5357C19.322 45.534 14.2021 43.2408 10.4788 39.5212C6.75918 35.798 4.46523 30.678 4.46426 25C4.46514 19.322 6.75918 14.2021 10.4788 10.4788C14.2021 6.75918 19.322 4.46523 25 4.46426C30.678 4.46514 35.7972 6.75918 39.5211 10.4788C43.2407 14.2021 45.5348 19.322 45.5356 25C45.5349 30.678 43.2408 35.798 39.5211 39.5212Z" fill="#12F128"/>
<path id="Vector_2" d="M18.082 16.1455V36.4284H20.6177V27.5547H33.9277V16.1455H20.6177H18.082Z" fill="#12F128"/>
</g>
</g>
<defs>
<clipPath id="clip0_136_7463">
<rect width="50" height="50" fill="white"/>
</clipPath>
</defs>
</svg>
