<svg width="50" height="50" viewBox="0 0 50 50" fill="none" xmlns="http://www.w3.org/2000/svg">
<g id="&#227;&#130;&#185;&#227;&#130;&#191;&#227;&#131;&#179;&#227;&#131;&#128;&#227;&#131;&#188;&#227;&#131;&#137;&#227;&#129;&#170;&#227;&#131;&#143;&#227;&#131;&#188;&#227;&#131;&#136;&#227;&#129;&#174;&#231;&#132;&#161;&#230;&#150;&#153;&#227;&#130;&#162;&#227;&#130;&#164;&#227;&#130;&#179;&#227;&#131;&#179; 2">
<g id="Group">
<path id="Vector" d="M37.5 4.53809C30.5969 4.53809 25 10.1351 25 17.0396C25 10.1351 19.403 4.53809 12.5 4.53809C5.59697 4.53809 0 10.135 0 17.0395C0 23.5321 3.05791 35.9254 21.344 44.0155C22.5007 44.5282 24.8307 45.4285 24.8307 45.4285C24.8841 45.4499 24.9421 45.4621 25 45.4621C25.0579 45.4621 25.116 45.4499 25.1693 45.4285C25.1693 45.4285 27.4993 44.5282 28.656 44.0155C46.9422 35.9254 50 23.5322 50 17.0395C50 10.135 44.4031 4.53809 37.5 4.53809Z" fill="#FFAFDF"/>
</g>
</g>
</svg>
